<?xml version="1.0" encoding="utf-8"?>
<!-- Generator: Adobe Illustrator 27.2.0, SVG Export Plug-In . SVG Version: 6.00 Build 0)  -->
<svg version="1.1" xmlns="http://www.w3.org/2000/svg" xmlns:xlink="http://www.w3.org/1999/xlink" x="0px" y="0px"
	 viewBox="0 0 576 486" style="enable-background:new 0 0 576 486;" xml:space="preserve">
<style type="text/css">
	.st0{fill:#FFFFFF;stroke:#3A3836;stroke-width:2;stroke-miterlimit:10;}
	.st1{fill:url(#SVGID_1_);stroke:#3A3836;stroke-width:2;stroke-miterlimit:10;}
	.st2{fill:url(#SVGID_00000107576867655444154450000014351511691836596884_);stroke:#FFFFFF;stroke-width:4;stroke-miterlimit:10;}
	.st3{fill:#ADCDFB;}
	.st4{fill:#FFF4BE;stroke:#3A3836;stroke-width:2;stroke-miterlimit:10;}
	.st5{clip-path:url(#SVGID_00000166658542625656746570000014528442115704569238_);}
	.st6{fill:none;stroke:#FFDE83;stroke-miterlimit:10;}
	.st7{fill:none;stroke:#3A3836;stroke-width:2;stroke-miterlimit:10;}
	.st8{fill:#FFFFFF;stroke:#3A3836;stroke-width:2;stroke-linecap:round;stroke-linejoin:round;stroke-miterlimit:10;}
	.st9{fill:none;stroke:#3A3836;stroke-width:2;stroke-linecap:round;stroke-miterlimit:10;}
	.st10{fill:none;stroke:#3A3836;stroke-width:2;stroke-linejoin:round;stroke-miterlimit:10;}
	.st11{fill:#3A3836;}
	.st12{fill:#A4EEC4;}
	.st13{fill:none;stroke:#3A3836;stroke-width:2;stroke-linecap:round;stroke-linejoin:round;stroke-miterlimit:10;}
	.st14{fill:#E6E6E6;}
	.st15{fill:#E5E5E5;}
	.st16{fill:#D1DAFA;}
	.st17{fill:none;stroke:#3A3836;stroke-width:2;stroke-linecap:round;stroke-linejoin:round;}
	.st18{fill:#FFFFFF;}
	.st19{fill:#FFFFFF;stroke:#3A3836;stroke-width:2;stroke-linecap:round;stroke-linejoin:round;}
	.st20{fill:#FD8753;}
	.st21{fill:#FC8653;stroke:#3A3836;stroke-width:2;stroke-miterlimit:10;}
	.st22{fill:url(#SVGID_00000026848755844066802100000003299707146264925827_);stroke:#3A3836;stroke-width:2;stroke-miterlimit:10;}
	.st23{fill:#D1DAFA;stroke:#3A3836;stroke-width:2;stroke-linejoin:round;stroke-miterlimit:10;}
	.st24{fill:#ADCDFB;stroke:#3A3836;stroke-width:2;stroke-miterlimit:10;}
	.st25{fill:#FFDE83;}
	.st26{fill:#3A3836;stroke:#3A3836;stroke-width:2;stroke-miterlimit:10;}
</style>
<g id="Frame">
	<path class="st0" d="M456.3,332.2H46.7c-3.9,0-7-3.1-7-7V41.5c0-3.9,3.1-7,7-7h409.6c3.9,0,7,3.1,7,7v283.7
		C463.3,329.1,460.2,332.2,456.3,332.2z"/>
	<g>
		
			<linearGradient id="SVGID_1_" gradientUnits="userSpaceOnUse" x1="-51.333" y1="338.5738" x2="-51.3329" y2="475.9577" gradientTransform="matrix(4.347593e-07 -1 1 3.386298e-07 -258.8341 130.5122)">
			<stop  offset="0" style="stop-color:#F26C3D"/>
			<stop  offset="1" style="stop-color:#FBB315"/>
		</linearGradient>
		<polygon class="st1" points="79.7,142.2 79.7,221.5 148.4,261.2 217.1,221.5 217.1,142.2 148.4,102.5 		"/>
		
			<linearGradient id="SVGID_00000015347276594289339730000002081969225650003880_" gradientUnits="userSpaceOnUse" x1="-51.333" y1="363.8541" x2="-51.3329" y2="450.6775" gradientTransform="matrix(4.347593e-07 -1 1 3.386298e-07 -258.8341 130.5122)">
			<stop  offset="0" style="stop-color:#F26C3D"/>
			<stop  offset="1" style="stop-color:#FBB315"/>
		</linearGradient>
		
			<polygon style="fill:url(#SVGID_00000015347276594289339730000002081969225650003880_);stroke:#FFFFFF;stroke-width:4;stroke-miterlimit:10;" points="
			105,156.8 105,206.9 148.4,232 191.8,206.9 191.8,156.8 148.4,131.7 		"/>
	</g>
	<path class="st3" d="M151.1,68.8H66.9c-4,0-7.2-3.2-7.2-7.2v0c0-4,3.2-7.2,7.2-7.2h84.1c4,0,7.2,3.2,7.2,7.2v0
		C158.2,65.6,155,68.8,151.1,68.8z"/>
	<path class="st4" d="M432.9,120.6H266.8c-3.9,0-7-3.1-7-7V63.4c0-3.9,3.1-7,7-7h166.1c3.9,0,7,3.1,7,7v50.2
		C439.9,117.4,436.8,120.6,432.9,120.6z"/>
	<path class="st0" d="M395.7,253.3H266.8c-3.9,0-7-3.1-7-7v-81.8c0-3.9,3.1-7,7-7h128.8c3.9,0,7,3.1,7,7v81.8
		C402.7,250.2,399.5,253.3,395.7,253.3z"/>
	<g>
		<defs>
			<path id="SVGID_00000101787203050805839360000009764627579258104252_" d="M432.9,120.6H266.8c-3.9,0-7-3.1-7-7V63.4
				c0-3.9,3.1-7,7-7h166.1c3.9,0,7,3.1,7,7v50.2C439.9,117.4,436.8,120.6,432.9,120.6z"/>
		</defs>
		<clipPath id="SVGID_00000135680733309210047200000008684440206119489981_">
			<use xlink:href="#SVGID_00000101787203050805839360000009764627579258104252_"  style="overflow:visible;"/>
		</clipPath>
		<g style="clip-path:url(#SVGID_00000135680733309210047200000008684440206119489981_);">
			<rect x="236.2" y="54.4" class="st6" width="22.7" height="22.7"/>
			<rect x="236.2" y="77.1" class="st6" width="22.7" height="22.7"/>
			<rect x="236.2" y="99.9" class="st6" width="22.7" height="22.7"/>
			<rect x="258.9" y="54.4" class="st6" width="22.7" height="22.7"/>
			<rect x="258.9" y="77.1" class="st6" width="22.7" height="22.7"/>
			<rect x="258.9" y="99.9" class="st6" width="22.7" height="22.7"/>
			<rect x="281.7" y="54.4" class="st6" width="22.7" height="22.7"/>
			<rect x="281.7" y="77.1" class="st6" width="22.7" height="22.7"/>
			<rect x="281.7" y="99.9" class="st6" width="22.7" height="22.7"/>
			<rect x="304.4" y="54.4" class="st6" width="22.7" height="22.7"/>
			<rect x="304.4" y="77.1" class="st6" width="22.7" height="22.7"/>
			<rect x="304.4" y="99.9" class="st6" width="22.7" height="22.7"/>
			<rect x="327.1" y="54.4" class="st6" width="22.7" height="22.7"/>
			<rect x="327.1" y="77.1" class="st6" width="22.7" height="22.7"/>
			<rect x="327.1" y="99.9" class="st6" width="22.7" height="22.7"/>
			<rect x="349.9" y="54.4" class="st6" width="22.7" height="22.7"/>
			<rect x="349.9" y="77.1" class="st6" width="22.7" height="22.7"/>
			<rect x="349.9" y="99.9" class="st6" width="22.7" height="22.7"/>
			<rect x="372.6" y="54.4" class="st6" width="22.7" height="22.7"/>
			<rect x="372.6" y="77.1" class="st6" width="22.7" height="22.7"/>
			<rect x="372.6" y="99.9" class="st6" width="22.7" height="22.7"/>
			<rect x="395.3" y="54.4" class="st6" width="22.7" height="22.7"/>
			<rect x="395.3" y="77.1" class="st6" width="22.7" height="22.7"/>
			<rect x="395.3" y="99.9" class="st6" width="22.7" height="22.7"/>
			<rect x="418" y="54.4" class="st6" width="22.7" height="22.7"/>
			<rect x="418" y="77.1" class="st6" width="22.7" height="22.7"/>
			<rect x="418" y="99.9" class="st6" width="22.7" height="22.7"/>
			<rect x="440.8" y="54.4" class="st6" width="22.7" height="22.7"/>
			<rect x="440.8" y="77.1" class="st6" width="22.7" height="22.7"/>
			<rect x="440.8" y="99.9" class="st6" width="22.7" height="22.7"/>
		</g>
	</g>
	<path class="st7" d="M432.9,120.6H266.8c-3.9,0-7-3.1-7-7V63.4c0-3.9,3.1-7,7-7h166.1c3.9,0,7,3.1,7,7v50.2
		C439.9,117.4,436.8,120.6,432.9,120.6z"/>
	<path class="st8" d="M184.5,313H71.8c-5,0-9.1-4.1-9.1-9.1v0c0-5,4.1-9.1,9.1-9.1h112.7c5,0,9.1,4.1,9.1,9.1v0
		C193.5,308.9,189.5,313,184.5,313z"/>
	<path class="st9" d="M278.5,105.2c3.2-4.4,8.2-6.3,12.6-4.8c2.7,0.9,5.4,3.1,8.2,2.9c8.4-0.6,10.2-19.2,18.3-22.2
		c5-1.9,9.9,3.2,13.7,8.1c2,2.6,4.1,5.4,6.8,5.7c3.7,0.5,6.9-3.8,8.9-8.2c0.7-1.5,1.5-3.2,2.7-4.1c3.3-2.4,6.7,3.2,10.2,4.8
		c3.4,1.5,7-0.7,9.8-3.7c2.8-3,5.1-6.8,8.2-9.2c6.5-5.1,15.2-2.7,20.6,4.4c2.2,2.9,4.1,6.6,7,8.1c3.1,1.6,6.6,0.2,9.2-2.5
		c2.6-2.7,4.6-6.4,6.5-10.1"/>
	<polyline class="st10" points="182.5,135.4 217.1,88.5 259.8,88.5 	"/>
	<circle class="st11" cx="182.5" cy="135.4" r="3.7"/>
	<circle class="st11" cx="117.4" cy="229.7" r="3.7"/>
	<path class="st12" d="M158.4,313H71.8c-5,0-9.1-4.1-9.1-9.1v0c0-5,4.1-9.1,9.1-9.1h86.6V313z"/>
	<polyline class="st10" points="117.4,229.7 93.7,261.3 93.7,294.9 	"/>
	<path class="st13" d="M184.5,313H71.8c-5,0-9.1-4.1-9.1-9.1v0c0-5,4.1-9.1,9.1-9.1h112.7c5,0,9.1,4.1,9.1,9.1v0
		C193.5,308.9,189.5,313,184.5,313z"/>
	<line class="st13" x1="233.9" y1="205.6" x2="191.8" y2="176.8"/>
	<circle class="st11" cx="191.8" cy="176.8" r="3.7"/>
	<g>
		<path class="st14" d="M274.4,215.7h7.2c1.1,0,2,0.9,2,2v26.8c0,1.1-0.9,2-2,2h-7.2c-1.1,0-2-0.9-2-2v-26.8
			C272.4,216.6,273.3,215.7,274.4,215.7z"/>
		<path class="st14" d="M292.1,201.7h7.2c1.1,0,2,0.9,2,2v40.9c0,1.1-0.9,2-2,2h-7.2c-1.1,0-2-0.9-2-2v-40.9
			C290.1,202.6,291,201.7,292.1,201.7z"/>
		<path class="st14" d="M309.9,182.3h7.2c1.1,0,2,0.9,2,2v60.2c0,1.1-0.9,2-2,2h-7.2c-1.1,0-2-0.9-2-2v-60.2
			C307.9,183.2,308.8,182.3,309.9,182.3z"/>
		<path class="st14" d="M327.6,193.3h7.2c1.1,0,2,0.9,2,2v49.2c0,1.1-0.9,2-2,2h-7.2c-1.1,0-2-0.9-2-2v-49.2
			C325.6,194.2,326.5,193.3,327.6,193.3z"/>
		<path class="st14" d="M345.4,167.3h7.2c1.1,0,2,0.9,2,2v75.2c0,1.1-0.9,2-2,2h-7.2c-1.1,0-2-0.9-2-2v-75.2
			C343.4,168.2,344.3,167.3,345.4,167.3z"/>
		<path class="st14" d="M363.1,186.7h7.2c1.1,0,2,0.9,2,2v55.9c0,1.1-0.9,2-2,2h-7.2c-1.1,0-2-0.9-2-2v-55.9
			C361.1,187.6,362,186.7,363.1,186.7z"/>
		<path class="st14" d="M380.9,175.8h7.2c1.1,0,2,0.9,2,2v66.7c0,1.1-0.9,2-2,2h-7.2c-1.1,0-2-0.9-2-2v-66.7
			C378.9,176.7,379.8,175.8,380.9,175.8z"/>
	</g>
	<line class="st13" x1="259.8" y1="205.6" x2="233.9" y2="205.6"/>
	<g>
		<path class="st14" d="M216.9,294.8h69.4c1.9,0,3.4,1.5,3.4,3.4l0,0c0,1.9-1.5,3.4-3.4,3.4h-69.4c-1.9,0-3.4-1.5-3.4-3.4l0,0
			C213.4,296.3,215,294.8,216.9,294.8z"/>
		<path class="st14" d="M216.9,306.2h31.4c1.9,0,3.4,1.5,3.4,3.4v0c0,1.9-1.5,3.4-3.4,3.4h-31.4c-1.9,0-3.4-1.5-3.4-3.4v0
			C213.4,307.7,215,306.2,216.9,306.2z"/>
	</g>
	<path class="st15" d="M539.1,461.6H188.7c-6.8,0-12.2-5.5-12.2-12.2v0c0-6.8,5.5-12.2,12.2-12.2h350.5c6.8,0,12.2,5.5,12.2,12.2v0
		C551.4,456.1,545.9,461.6,539.1,461.6z"/>
	<path class="st16" d="M111.4,91.6H65.6c-3.3,0-5.9-2.6-5.9-5.9v0c0-3.3,2.6-5.9,5.9-5.9h45.7c3.3,0,5.9,2.6,5.9,5.9v0
		C117.3,88.9,114.6,91.6,111.4,91.6z"/>
</g>
<g id="Postmanauts">
	<path class="st16" d="M176.4,415.5c0,11.7,9.4,21.1,21.1,21.1c11.6,0,21.1-9.4,21.1-21.1c0-1.5-0.2-3-0.5-4.4
		c0,0-10.9-7.6-21.6-0.5c-0.3,0.2-0.5,0.4-0.8,0.5c-3.8,2.5-7.9,4.9-18.9,0C176.6,412.6,176.4,414,176.4,415.5z"/>
	<path class="st17" d="M176.4,415.5c0,11.7,9.4,21.1,21.1,21.1c11.7,0,21.1-9.4,21.1-21.1c0-8.8-5.4-16.3-13-19.5v-26.7h-16.2V396
		C181.8,399.2,176.4,406.7,176.4,415.5z"/>
	<g>
		<path class="st18" d="M545.3,378.6c-2.3,2-5.3,4.2-8.7,6.4c-3.4,2.1-7.3,4.2-11.6,5.7c0.1,6.2-0.1,13-0.5,20.5
			c-0.3,5.9-0.8,19.7-1.3,26.1H420.7v-31c-16.4,3.1-30.1,3.4-30.1,3.4c-10.2,0.2-19.3-7-21.1-17.4c-2-11.4,4.9-21.8,17-24.4
			c3.1-0.7,18.6-3.9,36.1-12.3v-14c-2.1-4.4-11.6-16.4-5.1-36.2l0,0c-22.5-12.3-37.8-36.1-37.8-63.6c0-1.9,0.1-3.8,0.2-5.7
			c0,0,0-0.1,0-0.1c2.2-27.4,19.5-50.4,43.6-60.8c-1.9-1.1-3.5-2.9-4.3-5.2c-2.1-5.3,0.6-11.3,5.9-13.3c5.3-2,11.2,0.6,13.3,5.9
			c1,2.7,0.9,5.6-0.3,8.1c4.5-0.9,9.2-1.3,13.9-1.3c40,0,72.4,32.4,72.4,72.3c0,15.9-5.2,30.7-13.9,42.6l0.2,0l12,5.4
			c5.8,2.6,10.3,7.3,12.7,13.2c4.9,12.2,12.8,35.2,15.2,62.9C550.9,370.7,549,375.5,545.3,378.6z"/>
	</g>
	<path class="st19" d="M424.4,360.7c-17.5-0.7-29.1-1.5-49.6-6.8c-22.2-5.7-45.3-23.1-45.4-23.1c-6.7-5.2-8.8-14.6-4.6-22.2
		c4.6-8.4,14.5-11.6,23.7-6.9c4.1,2.1,26.9,16.6,69,3.8l5.1,36.2L424.4,360.7z"/>
	<line class="st9" x1="146.3" y1="437.2" x2="558.8" y2="437.2"/>
	<line class="st9" x1="81.4" y1="437.2" x2="121.1" y2="437.2"/>
	<g>
		<path class="st17" d="M524.8,380.7c0.2,3.1,0.2,6.4,0.3,9.9c0.1,6.2-0.1,13-0.5,20.5c-0.3,5.9-0.8,19.7-1.4,26.1H420.7v-31"/>
		<path class="st17" d="M492.6,301.9c5.8,4.6,13.6,12.2,18.4,22.3c5.2,10.8,10,22.8,12.4,41.3c0.3,2.1-0.6,4.1-2.4,5.2
			c-4.4,2.9-14.2,7.4-30.4,3.6"/>
		<path class="st17" d="M453.8,334.3c-0.6-7.8,2.2-15.4,4.2-20.1"/>
		<path class="st17" d="M476,378.1c7.7,7.1,15.1,9.1,26.3,9.1c8.2,0,15.9-2.4,22.5-6.5"/>
		<path class="st17" d="M460.9,326.5c2-5.4,4.4-10.2,8.3-14.4"/>
		<path class="st19" d="M422.6,341.6c-2.1-4.4-11.6-16.4-5.1-36.2l6.9,3.4C422.7,312.3,421.1,328.5,422.6,341.6"/>
		<path class="st17" d="M510.7,284.5l12,5.4c5.8,2.6,10.3,7.3,12.7,13.2c4.9,12.2,12.8,35.2,15.2,62.9c0.4,4.8-1.5,9.5-5.2,12.6
			c-4.7,3.9-11.8,9-20.3,12"/>
		<circle class="st19" cx="452" cy="241.9" r="72.3"/>
		<circle class="st17" cx="483.7" cy="248.3" r="13"/>
		<path class="st7" d="M428.8,310.5L428.8,310.5c6.5-0.6,13.4-2.6,19.5-7.6c8.2-6.8,15.2-19.3,12.4-32.3c-3-14.1-15.8-21.1-17.5-22
			c-16.4-8.6-26.1,3.6-47.4-3.8c-8.1-2.8-12.3-6.5-16.1-8.8"/>
		<g>
			<line class="st17" x1="432.8" y1="176" x2="436.5" y2="184.9"/>
			
				<ellipse transform="matrix(0.9333 -0.3592 0.3592 0.9333 -31.1891 165.1315)" class="st20" cx="428.8" cy="166.5" rx="10.3" ry="10.3"/>
			
				<ellipse transform="matrix(0.9333 -0.3592 0.3592 0.9333 -31.1891 165.1315)" class="st21" cx="428.8" cy="166.5" rx="10.3" ry="10.3"/>
		</g>
	</g>
	<g>
		
			<linearGradient id="SVGID_00000136404385175569491530000000724886571466837163_" gradientUnits="userSpaceOnUse" x1="-264.3291" y1="557.4199" x2="-264.3291" y2="594.2504" gradientTransform="matrix(4.347593e-07 -1 1 3.386298e-07 -258.8341 130.5122)">
			<stop  offset="0" style="stop-color:#F26C3D"/>
			<stop  offset="1" style="stop-color:#FBB315"/>
		</linearGradient>
		
			<polygon style="fill:url(#SVGID_00000136404385175569491530000000724886571466837163_);stroke:#3A3836;stroke-width:2;stroke-miterlimit:10;" points="
			298.6,384.2 298.6,405.5 317,416.1 335.4,405.5 335.4,384.2 317,373.6 		"/>
		<path class="st23" d="M319.3,399.5h76v-9.3h-76c-2.6,0-4.6,2.1-4.6,4.6l0,0C314.7,397.4,316.8,399.5,319.3,399.5z"/>
		<g>
			<g>
				<path class="st23" d="M396.4,303.8l7.4-8.2c1.5-1.6,1.4-4.2-0.3-5.7l-10.9-9.8c-1.6-1.5-4.2-1.4-5.7,0.3l-7.4,8.2L396.4,303.8z"
					/>
				<path class="st23" d="M402.9,289.2l5.8-6.5c2.4-2.6,2.1-6.7-0.5-9l0,0c-2.6-2.4-6.7-2.1-9,0.5l-5.8,6.5L402.9,289.2z"/>
				<path class="st23" d="M341.1,338.2l-15.7,17.4c-1.4,1.6-1.3,4.1,0.3,5.5l4.3,3.9c1.6,1.4,4.1,1.3,5.5-0.3l15.7-17.4L341.1,338.2
					z"/>
				<path class="st23" d="M344.8,323.2l-22.1,1.2c-2,0.1-3.6,1.8-3.5,3.9l0.3,5.4c0.1,2,1.8,3.6,3.9,3.5l22.1-1.2L344.8,323.2z"/>
				<path class="st23" d="M364.1,342l0.9,16.5c0.1,1.5-1.1,2.8-2.6,2.9l-4.1,0.2c-1.5,0.1-2.8-1.1-2.9-2.6l-0.9-16.5L364.1,342z"/>
				<path class="st23" d="M399,310.8l-37.2,41.3c-1.3,1.4-3.5,1.5-4.9,0.3L335.4,333c-1.4-1.3-1.5-3.5-0.3-4.9l37.2-41.3
					c1.3-1.4,3.5-1.5,4.9-0.3l21.4,19.3C400.2,307.1,400.3,309.3,399,310.8z"/>
			</g>
			<g>
				<path class="st24" d="M420.7,426.6h-25.4v-55.9c0-22.6-17.7-32.9-18.5-33.4l0.1,0.1l12.2-22.2c1.3,0.7,31.5,17.7,31.5,55.6
					V426.6z"/>
			</g>
			<circle class="st24" cx="383.1" cy="326.3" r="17.1"/>
			<path class="st24" d="M420.7,437.2H290.2c-5.8,0-10.5-4.7-10.5-10.5v0c0-5.8,4.7-10.5,10.5-10.5h130.5V437.2z"/>
		</g>
	</g>
	<path class="st19" d="M460.7,326.6c-25.5,31.6-69.9,40.7-75.3,41.8c-12.3,2.6-19.3,13.1-17.3,24.7c1.8,10.5,11.1,17.8,21.4,17.6
		c0,0,35.6-0.8,60.8-12.7c15.8-7.4,33.5-18.2,40.4-23.5"/>
	<g>
		<path class="st25" d="M256.8,435.2c-1.3,1.2-3.1,2-5.1,2h-32.8c-5.4,0-9.1-5.6-6.9-10.5l8.3-19.1c0,0,6.8,6.7,12.9-0.9
			c0.3-0.3,0.5-0.7,0.8-1c2.3-3.2,4.8-6.8,13.5-4.3l1,2.2l0.6,1.4l9.5,21.7c0.1,0.2,0.2,0.5,0.2,0.7
			C259.8,430.2,258.9,433.3,256.8,435.2z"/>
	</g>
	<circle class="st25" cx="231.7" cy="351" r="7.6"/>
	<g>
		<path class="st17" d="M256.8,435.2c-1.3,1.2-3.1,2-5.1,2h-32.8c-5.4,0-9.1-5.6-6.9-10.5l11.5-26.4l2.3-5.2v-34.2l-4.3-4.5
			c-0.8-0.9-0.2-2.3,1-2.3h22.4v41l1.9,4.4l0.4,0.8l2,4.7l9.5,21.7c0.1,0.2,0.2,0.5,0.3,0.7C259.8,430.2,258.9,433.3,256.8,435.2z"
			/>
	</g>
	<circle class="st25" cx="240" cy="334.3" r="4.6"/>
	<circle class="st25" cx="231.7" cy="325.2" r="2.6"/>
	
		<ellipse transform="matrix(0.6984 -0.7157 0.7157 0.6984 -227.3888 264.2548)" class="st16" cx="199.9" cy="401.9" rx="4.2" ry="4.2"/>
	
		<ellipse transform="matrix(0.6984 -0.7157 0.7157 0.6984 -222.3151 257.9887)" class="st16" cx="195" cy="392.8" rx="2.6" ry="2.6"/>
	<circle class="st16" cx="199.1" cy="386.9" r="1.6"/>
</g>
<g id="Stars">
	<polygon class="st0" points="504.6,102.5 511.2,105.5 504.4,108.1 501.4,114.8 498.8,108 492.1,105 498.9,102.3 501.9,95.6 	"/>
	<path class="st26" d="M528.7,152.1l2.5,0.8l-2.5,0.8l-0.8,2.5l-0.8-2.5l-2.5-0.8l2.5-0.8l0.8-2.5L528.7,152.1z"/>
	<path class="st26" d="M96.5,392l2.5,0.8l-2.5,0.8l-0.8,2.5l-0.8-2.5l-2.5-0.8l2.5-0.8l0.8-2.5L96.5,392z"/>
	<polygon class="st0" points="130.9,367 137.6,370 130.7,372.6 127.8,379.3 125.1,372.5 118.4,369.5 125.2,366.8 128.2,360.1 	"/>
</g>
</svg>
